<svg width="31" height="31" viewBox="0 0 31 31" fill="none" xmlns="http://www.w3.org/2000/svg">
<g clip-path="url(#clip0)">
<path d="M15.5 31C12.4344 31 9.43762 30.0909 6.88866 28.3878C4.3397 26.6846 2.35303 24.2639 1.17987 21.4316C0.00671057 18.5993 -0.300241 15.4828 0.29783 12.4761C0.895901 9.4694 2.37213 6.70757 4.53985 4.53985C6.70756 2.37214 9.4694 0.895906 12.4761 0.297835C15.4828 -0.300236 18.5993 0.00671593 21.4316 1.17987C24.2638 2.35303 26.6846 4.33971 28.3878 6.88867C30.0909 9.43763 31 12.4344 31 15.5C30.9956 19.6095 29.3611 23.5494 26.4552 26.4553C23.5494 29.3611 19.6095 30.9956 15.5 31V31ZM15.5 2.58334C12.9453 2.58334 10.448 3.34089 8.32389 4.76019C6.19975 6.17949 4.54419 8.1968 3.56656 10.557C2.58893 12.9172 2.33313 15.5143 2.83153 18.0199C3.32992 20.5255 4.56011 22.827 6.36654 24.6335C8.17297 26.4399 10.4745 27.6701 12.9801 28.1685C15.4857 28.6669 18.0828 28.4111 20.443 27.4335C22.8032 26.4558 24.8205 24.8003 26.2398 22.6761C27.6591 20.552 28.4167 18.0547 28.4167 15.5C28.4129 12.0754 27.0508 8.79223 24.6293 6.3707C22.2078 3.94917 18.9246 2.5871 15.5 2.58334V2.58334Z" fill="#4299E1"/>
<path d="M20.6667 20.6667H8.50692L6.45833 18.6181V10.3333H15.5V12.9167H9.04167V17.5486L9.57642 18.0833H18.0833V9.79858L20.1319 7.75H23.25V10.3333H21.2014L20.6667 10.8681V20.6667Z" fill="#4299E1"/>
<path d="M11.625 20.6667H9.04167V23.25H11.625V20.6667Z" fill="#4299E1"/>
<path d="M19.375 20.6667H16.7917V23.25H19.375V20.6667Z" fill="#4299E1"/>
</g>
<defs>
<clipPath id="clip0">
<rect width="31" height="31" fill="white"/>
</clipPath>
</defs>
</svg>
